<svg width="253" height="145" viewBox="0 0 253 145" fill="none" xmlns="http://www.w3.org/2000/svg">
<path fill-rule="evenodd" clip-rule="evenodd" d="M110.486 13.5125L110.488 13.511L110.496 13.5063C113.745 11.3641 117.149 9.12035 119.923 7.29856C125.457 3.63639 130.028 0.662598 130.111 0.662598C130.193 0.662598 131.873 1.29591 133.828 2.06689C135.783 2.83787 143.741 5.97688 151.45 9.06081C155.372 10.6156 159.359 12.1989 162.586 13.4809L162.592 13.4834C165.706 14.7202 168.113 15.6762 169.073 16.0547C171.028 16.8257 172.79 17.5692 172.955 17.6793C173.148 17.7894 177.031 23.4341 181.601 30.2629C185.455 35.9965 190.228 43.1392 196.02 51.8065L196.026 51.8159L199.362 56.8067L204.318 56.8343C207.952 56.8343 209.66 56.7241 210.734 56.4212C211.67 56.1459 212.578 55.6227 213.432 54.8242C214.175 54.1358 214.864 53.1721 215.112 52.4286C215.442 51.5475 215.525 50.7215 215.415 49.5374C215.304 48.6288 214.864 46.8941 214.396 45.6825C213.928 44.471 213.019 42.5435 212.331 41.4146C211.67 40.2856 210.21 38.1104 209.081 36.5959C207.953 35.0815 206.934 33.6497 206.796 33.4294C206.631 33.1816 206.961 33.2642 207.622 33.6772C208.122 33.9952 209.221 34.669 210.27 35.3125L210.272 35.3137L210.926 35.7148C212.138 36.4583 214.065 37.7799 215.194 38.6335C216.323 39.4871 218.113 41.0291 219.187 42.103C220.261 43.1768 221.637 44.7188 222.243 45.5449C222.877 46.3709 223.758 47.8027 224.198 48.7114C224.666 49.6201 225.245 51.0519 225.492 51.8779C225.768 52.7315 225.96 54.3561 225.96 55.5952C225.96 56.8343 225.768 58.4588 225.492 59.3124C225.245 60.1385 224.639 61.5152 224.143 62.3413C223.648 63.1673 222.326 64.7093 221.224 65.7281C219.71 67.1049 218.388 67.986 216.158 69.0874C214.368 69.996 212.055 70.8772 210.513 71.2627C209.081 71.6206 206.796 72.0887 205.474 72.309C203.106 72.667 203.051 72.6945 203.189 73.3553C203.272 73.7408 203.464 75.4755 203.657 77.2102C203.822 78.945 204.125 81.5057 204.593 85.4432L199.004 92.2169L199.499 92.9053C199.775 93.2908 204.758 101.221 210.568 110.528C216.406 119.835 222.216 129.141 223.482 131.179C224.239 132.37 225.316 134.098 226.905 136.649L226.907 136.652C228.036 138.463 229.423 140.689 231.137 143.432L233.422 143.653C234.689 143.763 239.59 143.873 244.326 143.845C249.035 143.845 252.945 143.928 253 144.038C253.028 144.176 193.607 144.286 120.942 144.313C73.879 144.345 41.0458 144.47 21.7012 144.544H21.6975C7.52058 144.598 0.589593 144.625 0.612883 144.566C0.620961 144.518 0.504429 144.469 0.370877 144.413H0.370849C0.0491708 144.279 -0.371206 144.103 0.61304 143.79C7.00119 143.735 12.2879 143.653 12.3705 143.57C12.4256 143.487 12.0677 141.945 11.5445 140.128C10.9938 138.311 10.5532 136.631 10.5532 136.411C10.5257 136.19 11.1039 134.621 11.8474 132.969C12.1277 132.322 12.4502 131.574 12.7687 130.835L12.7697 130.833C13.2642 129.686 13.7488 128.561 14.0502 127.875C14.3761 127.089 15.5965 124.26 17.0885 120.802C17.7393 119.294 18.4417 117.665 19.1442 116.035C23.302 106.397 23.4397 106.177 27.0743 100.615L28.5348 98.3853L28.5361 98.3833C30.251 95.7651 32.0642 92.997 33.0219 91.5285C33.573 90.6768 34.3178 89.5403 35.093 88.3572L35.0949 88.3545L35.0955 88.3534C36.0238 86.9369 36.9955 85.4541 37.7304 84.3143C38.4203 83.2442 39.4846 81.6198 40.6251 79.879C41.715 78.2155 42.8744 76.4459 43.8432 74.9524C45.8532 71.8684 48.1111 68.4265 48.8546 67.2976C49.598 66.1687 50.2038 65.2049 50.1763 65.1774C50.1487 65.1499 48.9372 65.4803 47.5054 65.9484C46.0735 66.3889 43.7606 66.9947 42.4114 67.2976C41.0621 67.573 38.584 67.9034 36.9043 68.0135C35.0595 68.1237 33.0219 68.0686 31.6727 67.8758C30.4611 67.6831 28.6713 67.215 27.6801 66.8295C26.6888 66.444 25.3396 65.673 24.6787 65.1223C24.0179 64.5716 23.1643 63.5804 22.7788 62.892C22.2557 61.9833 22.0354 61.1297 21.9528 59.7254C21.8426 58.2936 21.9528 57.3024 22.3933 55.8705C22.7237 54.7416 23.5773 53.0344 24.4309 51.7403C25.2294 50.5287 26.9366 48.4636 28.2308 47.1694C29.5249 45.8753 31.6176 44.0304 32.9117 43.0392C34.2059 42.0754 36.4913 40.5059 38.0057 39.5422C39.5202 38.5785 42.9896 36.7061 45.7156 35.3569C48.4415 34.0352 51.9936 32.4106 53.6181 31.7498C55.2427 31.0889 56.647 30.6208 56.7296 30.731C56.8122 30.8686 56.2891 31.7773 55.5731 32.7961C54.8848 33.8424 53.7283 35.3569 53.0399 36.1829C52.3515 37.009 51.1675 38.3031 50.3965 39.0466C49.6531 39.79 48.5242 40.7262 47.9184 41.1668C47.3126 41.5798 46.2663 42.1305 45.5779 42.3508C44.8895 42.5986 43.8432 42.7913 43.2374 42.7913C42.6316 42.7913 41.6404 42.5435 41.0346 42.2406C40.4288 41.9378 39.8781 41.6899 39.7955 41.6899C39.7129 41.6624 39.2173 42.0204 38.6666 42.4334C38.1434 42.8464 36.9319 43.8927 35.9957 44.7188C35.0319 45.5449 33.49 47.1694 32.5263 48.2984C31.5625 49.4273 30.4611 50.9693 30.1032 51.7403C29.7177 52.4837 29.3322 53.53 29.222 53.9981C29.1119 54.6039 29.222 55.2372 29.5249 55.8981C29.8003 56.4488 30.406 57.1371 30.8466 57.4125C31.3422 57.7154 32.4712 57.9907 33.6001 58.1009C34.674 58.211 36.4362 58.1284 37.5927 57.9632C38.7216 57.7705 40.952 57.1922 42.549 56.669C44.1461 56.1459 46.7894 55.0169 48.4691 54.2184C50.1487 53.3924 52.9022 51.8504 54.5819 50.8041C56.2891 49.7302 58.7672 48.0505 60.0889 47.0593C61.4381 46.068 67.2205 42.1305 72.9753 38.2756C76.7331 35.7764 81.078 32.9015 84.4612 30.6628L84.4626 30.6619L84.4671 30.6589C86.2625 29.4709 87.7867 28.4624 88.808 27.7847C91.7543 25.8572 97.7019 21.9473 102.025 19.0836C104.179 17.6704 107.256 15.6419 110.486 13.5125ZM152.387 32.0511C152.411 32.0511 151.844 32.6842 151.074 33.544L150.734 33.9235C149.771 34.9423 148.366 36.6494 147.595 37.6958C146.852 38.7696 145.861 40.4768 145.365 41.5507C144.869 42.6246 144.319 44.2767 144.126 45.2679C143.961 46.2592 143.851 47.8012 143.933 48.7098C144.016 49.6185 144.374 51.0503 144.759 51.8764C145.117 52.7024 145.916 53.8589 146.522 54.4647C147.1 55.0429 148.036 55.7313 148.559 56.0066C149.082 56.282 150.211 56.6399 151.037 56.8327C152.029 57.053 153.763 57.1356 156.131 57.0254C159.078 56.9153 159.876 56.9704 160.675 57.3559C161.198 57.6037 162.162 58.3471 162.822 59.0355C163.483 59.7239 164.419 61.0731 164.943 62.0644C165.438 63.0556 166.044 64.8454 166.319 66.057C166.567 67.2685 166.732 69.0032 166.595 71.564L161.638 71.6466C158.444 71.6741 155.608 71.564 153.653 71.3162C152.001 71.0959 149.523 70.6002 148.146 70.1872C146.769 69.8017 144.429 68.8931 142.914 68.1221C141.4 67.3786 139.39 66.112 138.426 65.3135C137.49 64.515 136.279 63.2484 135.755 62.4774C135.232 61.7339 134.544 60.3021 134.241 59.3108C133.883 58.1544 133.69 56.7776 133.69 55.4559C133.69 54.327 133.883 52.6198 134.103 51.6836C134.324 50.7199 134.874 49.1229 135.287 48.1041C135.728 47.0577 136.692 45.2955 137.435 44.1665C138.178 43.0376 139.583 41.2478 140.574 40.2015C141.565 39.1551 143.217 37.5856 144.291 36.7596C145.365 35.906 146.962 34.7771 147.871 34.2539C148.779 33.7307 150.129 33.0148 150.9 32.6844C151.408 32.4583 151.891 32.258 152.163 32.1452C152.289 32.0932 152.369 32.0598 152.387 32.0511ZM223.51 52.4271C223.647 52.4271 223.73 53.6111 223.675 55.2632C223.62 57.6037 223.482 58.292 222.904 59.4485C222.519 60.2195 221.472 61.5687 220.564 62.4774C219.352 63.6889 218.223 64.4874 216.296 65.4236C214.864 66.1396 212.799 66.9656 211.752 67.2685C210.706 67.5714 208.723 68.0119 207.347 68.2322C205.97 68.4525 204.373 68.6728 203.795 68.7279C202.748 68.8105 202.693 68.7829 202.5 67.8467C202.418 67.3236 202.253 66.47 201.977 65.0932H203.299C204.015 65.0932 205.639 64.9556 206.934 64.7903C208.228 64.6251 210.265 64.2396 211.477 63.9643C212.688 63.6614 214.726 62.8904 216.02 62.2571C217.314 61.6238 218.994 60.4949 219.82 59.7239C220.701 58.8978 221.637 57.6863 222.133 56.695C222.574 55.7864 223.014 54.4647 223.097 53.7488C223.179 53.0053 223.372 52.4271 223.51 52.4271ZM154.534 79.2187C154.589 79.2738 154.479 80.2651 154.314 81.3665C154.121 82.523 154.066 84.6432 154.149 86.2953C154.231 88.03 154.534 89.9024 154.865 90.9762C155.168 91.9675 155.608 93.0414 155.856 93.3993C156.076 93.7297 156.599 94.1703 157.04 94.3631C157.293 94.4981 158.302 95.0573 159.64 95.7997L159.643 95.8014C160.488 96.2698 161.464 96.8109 162.464 97.3644C164.187 98.3176 166.362 99.5392 168.176 100.558L168.183 100.562L168.186 100.564C169.093 101.073 169.909 101.532 170.532 101.88C173.836 103.725 173.947 103.808 174.47 105.157C174.572 105.444 174.705 105.807 174.847 106.195L174.848 106.196C175.087 106.851 175.353 107.578 175.544 108.131C176.067 109.59 176.067 109.783 175.654 110.746C175.433 111.297 175.241 112.261 175.241 112.867C175.241 113.472 175.433 114.464 175.709 115.069C175.957 115.675 176.755 116.722 177.444 117.41C178.159 118.098 179.454 119.062 182.014 120.521L196.691 120.026L197.764 119.172C198.343 118.704 199.224 117.658 199.692 116.832C200.298 115.868 200.711 114.684 200.903 113.417C201.069 112.343 201.124 111.159 201.041 110.746C200.959 110.306 200.959 109.975 201.096 109.975C201.206 109.948 201.592 110.857 201.977 111.958C202.556 113.638 202.666 114.491 202.666 116.997C202.666 119.888 202.611 120.136 200.903 123.605L201.647 124.211C202.06 124.514 204.813 126.827 207.76 129.305C212.468 133.243 213.157 133.931 213.432 134.895C213.597 135.501 214.093 137.676 215.332 143.486L212.441 143.678C210.844 143.761 193.992 143.844 174.993 143.844C155.994 143.844 139.583 143.761 136.664 143.431L132.782 138.199C130.661 135.308 128.816 132.83 128.679 132.692C128.541 132.554 128.954 129.14 129.56 125.12C130.193 121.1 130.882 116.584 131.102 115.069C131.35 113.555 131.625 112.178 131.763 112.041C131.873 111.903 132.589 111.435 133.305 111.049C134.048 110.664 138.316 108.323 142.777 105.845C147.237 103.367 151.23 101.192 151.671 100.971C152.194 100.724 152.359 100.476 152.249 100.118C152.166 99.8701 151.836 98.7136 151.561 97.5847C151.258 96.4557 150.927 94.1428 150.845 92.4907C150.762 90.7009 150.817 88.6357 151.01 87.3967C151.203 86.2677 151.671 84.533 152.056 83.5417C152.442 82.5505 153.13 81.1462 153.598 80.4303C154.066 79.7144 154.479 79.1637 154.534 79.2187ZM167.696 79.6868L168.632 80.5955C169.128 81.0636 170.092 82.2751 170.725 83.2664C171.386 84.2577 172.405 86.1576 173.01 87.5343C173.589 88.9111 174.167 90.4255 174.442 91.8023L173.561 91.5545C173.065 91.4443 172.129 91.1965 171.496 91.0038C170.835 90.8386 169.789 90.2879 169.155 89.7922C168.495 89.2966 167.669 88.3329 167.311 87.672C166.787 86.7083 166.65 86.0199 166.65 84.6432C166.65 83.6519 166.898 82.1375 167.173 81.2839L167.696 79.6868ZM94.315 104.303C94.5353 104.358 95.6091 104.496 96.6555 104.606C97.7293 104.689 100.373 105.074 102.576 105.432C104.778 105.79 108.055 106.451 109.872 106.919C111.69 107.387 113.259 107.883 113.369 107.965C113.479 108.076 114.553 113.748 115.792 120.549C117.004 127.378 118.381 134.619 118.876 136.657C119.344 138.722 119.95 141.09 120.611 143.486L116.756 143.651C114.636 143.734 112.158 143.734 109.597 143.403L105.274 137.345L102.878 136.437C101.584 135.941 99.7394 135.198 97.0134 134.041L95.4164 130.599C95.1813 130.1 94.8718 129.438 94.4638 128.565C93.3423 126.166 91.4766 122.174 88.3674 115.593L91.1209 109.893C93.186 105.597 93.9846 104.193 94.315 104.303ZM71.213 104.909C71.3507 104.964 71.4058 105.294 71.3507 105.625C71.2681 105.955 71.1855 108.599 71.1029 116.694L76.4447 123.302L77.7788 124.949L77.7807 124.951C80.4081 128.194 83.2211 131.665 84.5125 133.215C85.9994 135.032 87.9268 137.4 88.7529 138.447C89.6065 139.521 90.9006 141.063 92.8832 143.403L89.1384 143.623C87.0457 143.734 73.0303 143.816 57.9686 143.789C42.9069 143.789 29.9379 143.706 29.1394 143.596C27.7174 143.432 27.6804 143.376 26.4394 141.515L26.4134 141.476C25.3946 139.906 24.7337 139.273 22.9164 138.089C22.4428 137.773 21.9893 137.469 21.602 137.21C20.9761 136.791 20.5233 136.488 20.4383 136.437C20.3281 136.327 21.8701 133.408 23.8526 129.911C24.8931 128.115 25.8671 126.415 26.5915 125.151L26.5916 125.151L26.5919 125.15C27.2667 123.973 27.7247 123.173 27.8177 123.027C27.9829 122.724 28.506 122.421 28.9466 122.311C29.3872 122.229 33.3522 121.237 45.7155 118.098L50.3689 113.968C52.9297 111.683 55.6006 109.315 56.289 108.709C57.4179 107.69 57.9136 107.497 60.9975 106.726C62.8974 106.258 65.7335 105.68 67.3306 105.432C68.2062 105.296 69.0404 105.16 69.6517 105.061L69.6518 105.061C70.1554 104.979 70.5077 104.921 70.6072 104.909C70.8275 104.881 71.1029 104.881 71.213 104.909ZM144.292 56.7502C144.595 57.3009 145.531 58.3748 146.357 59.1182C147.183 59.8617 148.615 60.8254 149.524 61.266C150.432 61.679 152.167 62.3123 153.378 62.6152C154.7 62.9732 157.013 63.276 159.106 63.3862C161.061 63.4963 162.685 63.5239 162.74 63.4412C162.823 63.3586 162.63 62.863 162.327 62.3398C162.052 61.8167 161.446 60.9356 161.006 60.4124L160.18 59.4487C151.836 59.3936 150.322 59.2834 149.386 58.953C148.697 58.7327 147.706 58.3473 147.183 58.127C146.66 57.9067 145.669 57.2734 144.98 56.7502L143.714 55.7589L144.292 56.7502Z" fill="#FFFFE3"/>
</svg>
